<svg width="311" height="355" viewBox="0 0 311 355" fill="none" xmlns="http://www.w3.org/2000/svg">
<path fill-rule="evenodd" clip-rule="evenodd" d="M172.014 0.113487C173.293 0.0357252 175.908 -0.131805 177.064 0.189659C189.604 3.67985 191.882 22.1298 189.369 32.6848C187.872 38.9745 184.702 44.257 179.519 47.4777L179.6 51.4983C186.241 51.7228 192.866 52.575 199.644 52.5197C232.779 52.3387 265.366 44.0705 294.576 28.4338C299.179 26.0098 304.182 22.9385 308.679 20.2473C309.5 21.5001 309.145 21.8789 310.5 24.0002C307.705 25.5469 305.763 27.8972 303 29.5002C272.74 47.0592 240.141 60.9215 205.076 61.4133C196.479 61.534 188.427 61.8583 179.806 60.8801C179.638 97.5491 180.645 134.82 180.878 171.528C195.237 168.41 199.925 164.454 220.069 160.448C286.102 147.316 253.483 204.606 228.776 231.113C227.151 229.359 229.829 226.952 227.959 225.477C234.109 218.452 261.327 179.841 247.602 171.113C233.877 162.386 197.494 177.923 180.99 180.95L178.763 253.613L174.5 354.5C173 354.5 172.014 344.5 172.014 339V293.763C167.699 294.258 154.83 297.558 150.5 298C126.588 300.448 105.026 302.533 82.347 293.763C68.858 288.546 59.9189 284.173 54.0579 270.716C50.0467 261.506 52.5019 251.2 56.1233 242.24C62.0886 227.486 74.5662 217.285 87.4144 208.653C98.2862 201.348 106.746 196.743 118.839 191.625C110.197 190.113 94.7617 186.83 85.8069 184.133C56.1524 175.213 25.5726 158.568 9.05206 131.496C-0.494301 115.854 -4.30268 99.8958 6.69659 84.2893C14.8143 72.7718 29.3574 64.2197 42.4144 58.5442C78.1405 43.0146 117.132 41.9643 155.198 47.4777C162.385 48.5242 163.305 50.5809 170.342 52.3791L170.318 47.7326C153.702 40.1269 155.663 3.62947 172.014 0.113487ZM171.514 186C151.489 188.076 130.239 194.238 111.935 201.504C105.35 204.119 98.7458 208.508 92.6429 211.905C75.0888 221.475 62.4177 235.094 61.0003 256.021C61.4828 263.755 60.9996 274.496 74.0726 282.613C97.916 297.417 122.383 297.813 149.899 293.89C159.86 292.47 166.903 291.086 171.065 290.456C170.921 264.315 172.084 214.454 171.917 186.295C171.83 186.202 171.743 186.109 171.656 186.017L171.514 186ZM109.201 54.0197C106.537 54.0221 102.146 53.9233 99.6898 54.1428C94.4417 54.384 86.6107 54.7378 81.429 55.7356C59.0469 60.0457 33.7529 64.5056 17.6536 81.4299C13.2508 86.0583 8.33544 93.2611 6.0335 99.2111C0.771723 117.351 16.6645 138.744 29.6058 150.186C45.6348 164.358 65.8761 173.421 86.1556 179.265C92.5522 181.434 99.6728 183.634 106.319 184.946C112.024 186.075 120.186 187.606 125.988 189.507C142.049 184.408 154.209 179.518 171 176.999V106.499C170.861 95.0415 170.189 71.8657 169.659 60.5559L169.344 60.5236C164.225 59.96 157.625 58.341 152.336 57.5158C138.081 55.2378 123.655 54.0685 109.201 54.0197Z" fill="black"/>
</svg>
